# xmcd
#
# Track frame offsets: 
#        150
#        19388
#        42451
#        65741
#        92531
#        119417
#        138827
#        158107
#        181614
#        198584
#        222187
#        248595
#        265145
#
# Disc length: 3839 seconds
#
# Revision: 0
# Processed by: cddbd v1.5.2PL0 Copyright (c) Steve Scherf et al.
# Submitted via: ExactAudioCopy v0.95b4
#
DISCID=b50efd0d
DTITLE=Various Artist - Don´s Black Vol 13
DYEAR=1900
DGENRE=
TTITLE0=Lighthouse Family - Lovin every minute
TTITLE1=Eros Ramazotti - Terra Promessa
TTITLE2=The navigators - Come into my life
TTITLE3=Oli P. - Flugzeuge in meinem Bauch
TTITLE4=Papa Bear - Honey Love
TTITLE5=Lenny Kravitz - I belong to you
TTITLE6=R´n`G - I need your smile
TTITLE7=Shot feat. Mista P. - Kilin
TTITLE8=Usher - My way
TTITLE9=Down LOw - Once upon a time
TTITLE10=R´n´G - Open up your mind
TTITLE11=Down LOw - What would you do
TTITLE12=N time - What´s going on
EXTD=
EXTT0=
EXTT1=
EXTT2=
EXTT3=
EXTT4=
EXTT5=
EXTT6=
EXTT7=
EXTT8=
EXTT9=
EXTT10=
EXTT11=
EXTT12=
PLAYORDER=
